<svg width="760" height="520" viewBox="0 0 760 520" fill="none" xmlns="http://www.w3.org/2000/svg">
  <defs>
    <linearGradient id="g1" x1="0" y1="0" x2="760" y2="520" gradientUnits="userSpaceOnUse">
      <stop stop-color="#2563EB"/>
      <stop offset="1" stop-color="#1E40AF"/>
    </linearGradient>
  </defs>
  <rect x="0" y="0" width="760" height="520" rx="26" fill="#EEF4FF"/>
  <rect x="32" y="36" width="696" height="448" rx="20" fill="url(#g1)" opacity="0.08"/>

  <rect x="64" y="78" width="420" height="290" rx="18" fill="white"/>
  <rect x="88" y="106" width="170" height="16" rx="8" fill="#CBD5E1"/>
  <rect x="88" y="132" width="240" height="12" rx="6" fill="#E2E8F0"/>

  <rect x="88" y="170" width="260" height="52" rx="12" fill="#DCFCE7"/>
  <rect x="100" y="184" width="180" height="10" rx="5" fill="#16A34A" opacity="0.55"/>
  <rect x="100" y="200" width="120" height="10" rx="5" fill="#16A34A" opacity="0.35"/>

  <rect x="88" y="238" width="310" height="52" rx="12" fill="#DBEAFE"/>
  <rect x="100" y="252" width="220" height="10" rx="5" fill="#2563EB" opacity="0.55"/>
  <rect x="100" y="268" width="130" height="10" rx="5" fill="#2563EB" opacity="0.35"/>

  <rect x="88" y="306" width="220" height="42" rx="10" fill="#F1F5F9"/>
  <rect x="98" y="320" width="140" height="8" rx="4" fill="#94A3B8"/>

  <rect x="502" y="120" width="196" height="120" rx="16" fill="#FFFFFF"/>
  <text x="522" y="156" font-family="Inter,Arial,sans-serif" font-size="18" fill="#0F172A" font-weight="700">Lead quente</text>
  <text x="522" y="184" font-family="Inter,Arial,sans-serif" font-size="30" fill="#16A34A" font-weight="800">+1</text>
  <rect x="522" y="198" width="150" height="10" rx="5" fill="#DCFCE7"/>

  <rect x="522" y="258" width="176" height="120" rx="16" fill="#FFFFFF"/>
  <text x="542" y="294" font-family="Inter,Arial,sans-serif" font-size="18" fill="#0F172A" font-weight="700">Tempo resposta</text>
  <text x="542" y="322" font-family="Inter,Arial,sans-serif" font-size="28" fill="#2563EB" font-weight="800">-72%</text>
  <rect x="542" y="338" width="130" height="10" rx="5" fill="#DBEAFE"/>
</svg>